name C:\Users\r0593348\3dpredictsim\Results\MidTarsalJoint\Fal_s1_bCst_PF_Natali2010_ls150_MT_nl_k400_10_MTP_T5_ig24.mot
datacolumns 128
datarows 4
range 1.15065101 1.18517054
endheader
time	pelvis_tilt	pelvis_list	pelvis_rotation	pelvis_tx	pelvis_ty	pelvis_tz	hip_flexion_l	hip_adduction_l	hip_rotation_l	hip_flexion_r	hip_adduction_r	hip_rotation_r	knee_angle_l	knee_angle_r	ankle_angle_l	ankle_angle_r	subtalar_angle_l	subtalar_angle_r	tmt_angle_l	tmt_angle_r	mtp_angle_l	mtp_angle_r	lumbar_extension	lumbar_bending	lumbar_rotation	arm_flex_l	arm_add_l	arm_rot_l	arm_flex_r	arm_add_r	arm_rot_r	elbow_flex_l	elbow_flex_r	pro_sup_l	pro_sup_r	glut_med1_l/activation	glut_med2_l/activation	glut_med3_l/activation	glut_min1_l/activation	glut_min2_l/activation	glut_min3_l/activation	semimem_l/activation	semiten_l/activation	bifemlh_l/activation	bifemsh_l/activation	sar_l/activation	add_long_l/activation	add_brev_l/activation	add_mag1_l/activation	add_mag2_l/activation	add_mag3_l/activation	tfl_l/activation	pect_l/activation	grac_l/activation	glut_max1_l/activation	glut_max2_l/activation	glut_max3_l/activation	iliacus_l/activation	psoas_l/activation	quad_fem_l/activation	gem_l/activation	peri_l/activation	rect_fem_l/activation	vas_med_l/activation	vas_int_l/activation	vas_lat_l/activation	med_gas_l/activation	lat_gas_l/activation	soleus_l/activation	tib_post_l/activation	flex_dig_l/activation	flex_hal_l/activation	tib_ant_l/activation	per_brev_l/activation	per_long_l/activation	per_tert_l/activation	ext_dig_l/activation	ext_hal_l/activation	ercspn_l/activation	intobl_l/activation	extobl_l/activation	glut_med1_r/activation	glut_med2_r/activation	glut_med3_r/activation	glut_min1_r/activation	glut_min2_r/activation	glut_min3_r/activation	semimem_r/activation	semiten_r/activation	bifemlh_r/activation	bifemsh_r/activation	sar_r/activation	add_long_r/activation	add_brev_r/activation	add_mag1_r/activation	add_mag2_r/activation	add_mag3_r/activation	tfl_r/activation	pect_r/activation	grac_r/activation	glut_max1_r/activation	glut_max2_r/activation	glut_max3_r/activation	iliacus_r/activation	psoas_r/activation	quad_fem_r/activation	gem_r/activation	peri_r/activation	rect_fem_r/activation	vas_med_r/activation	vas_int_r/activation	vas_lat_r/activation	med_gas_r/activation	lat_gas_r/activation	soleus_r/activation	tib_post_r/activation	flex_dig_r/activation	flex_hal_r/activation	tib_ant_r/activation	per_brev_r/activation	per_long_r/activation	per_tert_r/activation	ext_dig_r/activation	ext_hal_r/activation	ercspn_r/activation	intobl_r/activation	extobl_r/activation	
          1.15065101	         -2.93017646	         -1.97162259	          5.53830318	          1.43831376	          0.91971565	         -0.00233178	        -16.48900291	         -0.86468957	          6.63666527	         29.43070103	          3.13200023	         -3.03984633	         -9.26291482	        -11.33552371	         -2.56643603	          5.54997784	         10.17249493	         -2.98655513	          3.19932788	         -1.06434714	         16.38894107	          3.28476179	         -1.78399078	          0.20652428	         -1.95005444	          4.70515541	        -13.45904177	         16.50440838	         -4.63912479	        -13.45471309	          8.45117826	         34.32177457	         15.47926913	         86.51662706	         86.51662706	          0.30609054	          0.10086760	          0.07340644	          0.31190978	          0.20361734	          0.10471070	          0.05000170	          0.05000030	          0.05000018	          0.05919932	          0.10384401	          0.05722683	          0.05000047	          0.05000040	          0.05000093	          0.05000061	          0.31238866	          0.05001199	          0.05000063	          0.05000200	          0.05000128	          0.05000084	          0.36512217	          0.60451633	          0.05000010	          0.05000034	          0.05000027	          0.21334723	          0.05000048	          0.05000033	          0.05000026	          0.27198513	          0.37437853	          0.33558607	          0.26767220	          0.25749208	          0.34581188	          0.05000002	          0.06165920	          0.15943405	          0.05000024	          0.05000005	          0.05000019	          0.05000001	          0.05000003	          0.05000012	          0.05958878	          0.05958461	          0.05000048	          0.05004267	          0.05004139	          0.05000692	          0.09425798	          0.05959138	          0.19646889	          0.05001386	          0.05000044	          0.14326329	          0.22585232	          0.12974674	          0.17534256	          0.07745194	          0.05958831	          0.05004364	          0.15892888	          0.05000619	          0.05697258	          0.07822565	          0.05000024	          0.05000027	          0.28499956	          0.05001411	          0.05000203	          0.05000012	          0.08583291	          0.08461352	          0.07413747	          0.05958881	          0.05958888	          0.05958875	          0.05000020	          0.05000030	          0.05000076	          0.48161176	          0.24621603	          0.18277262	          0.05953921	          0.48261695	          0.05000014	          0.05148678	          0.12225650	          0.10086659	
          1.16215752	         -2.92756515	         -2.06816788	          5.78877297	          1.45577252	          0.91886865	         -0.00212064	        -16.21762568	         -1.17449605	          6.43958964	         28.81172822	          3.58323342	         -2.84079303	        -11.41384117	        -11.48355228	         -3.31170812	          4.94325425	         11.22311373	         -3.39313667	          2.38916317	         -1.16692624	         18.15742589	          3.12322213	         -1.57459287	          0.42513245	         -2.02989359	          4.38045469	        -13.47693915	         16.83656272	         -5.59783937	        -13.45269008	          8.09125678	         35.55710920	         15.20162687	         86.51662706	         86.51662706	          0.25683589	          0.08463646	          0.06159453	          0.26171877	          0.17085222	          0.08786117	          0.05000261	          0.05000051	          0.05000083	          0.05000033	          0.08713406	          0.13308346	          0.14689005	          0.08463036	          0.05002027	          0.05000410	          0.26212067	          0.08935217	          0.05606759	          0.05000319	          0.05000188	          0.05000188	          0.30636837	          0.51713990	          0.06177974	          0.06283749	          0.05958910	          0.23704332	          0.05000235	          0.09293443	          0.14324992	          0.22821850	          0.31413522	          0.28158506	          0.22459968	          0.21605792	          0.29016567	          0.05000002	          0.05173734	          0.14030608	          0.05000011	          0.05000003	          0.05000014	          0.05001727	          0.07971542	          0.07101684	          0.05000005	          0.05000007	          0.05000100	          0.05000013	          0.05000014	          0.05000015	          0.07909043	          0.05000224	          0.16485409	          0.05040026	          0.05962873	          0.12021038	          0.27684948	          0.34530322	          0.20805217	          0.06498884	          0.05000012	          0.08197613	          0.13357690	          0.05000038	          0.05000042	          0.14794100	          0.07101613	          0.07101607	          0.59538214	          0.25548408	          0.24198054	          0.07101686	          0.20092366	          0.20032384	          0.17001476	          0.05000005	          0.05000012	          0.05000000	          0.05941832	          0.05005214	          0.05955933	          0.56773778	          0.20659611	          0.20127153	          0.27301207	          0.50118792	          0.06588475	          0.05000002	          0.10258354	          0.08463560	
          1.17366403	         -2.92099368	         -2.17078783	          6.00943324	          1.47356416	          0.91797523	         -0.00194059	        -15.88234613	         -1.48350072	          6.22886425	         28.03335917	          3.92744913	         -2.56433588	        -13.65396382	        -11.91433212	         -4.24300328	          4.49199694	         12.20945993	         -3.82195594	          1.47786828	         -1.38898890	         19.93502740	          3.04403666	         -1.34257859	          0.65802255	         -2.09735271	          3.96763941	        -13.49206478	         17.07389444	         -6.58392208	        -13.46193853	          7.81040042	         36.79532802	         14.95578585	         86.51662706	         86.51662706	          0.33621416	          0.07101717	          0.05168393	          0.21960437	          0.14335952	          0.07372299	          0.05000602	          0.05000066	          0.05000049	          0.05000017	          0.07311297	          0.15326590	          0.22528111	          0.07101426	          0.05959039	          0.05958934	          0.27481718	          0.07497532	          0.05003170	          0.05608395	          0.05958705	          0.05958881	          0.25706900	          0.49132820	          0.05958870	          0.05272664	          0.05000037	          0.19889943	          0.05608480	          0.07798029	          0.12019894	          0.19149460	          0.26358599	          0.23627365	          0.18845813	          0.18129094	          0.24347358	          0.06063874	          0.05000043	          0.17854331	          0.05000032	          0.08589723	          0.05000051	          0.05777414	          0.06688798	          0.05958917	          0.28732092	          0.21005328	          0.05000042	          0.05000028	          0.05000027	          0.28441515	          0.09656582	          0.09348055	          0.14963213	          0.05000008	          0.05003366	          0.10086672	          0.23230022	          0.28973869	          0.17457428	          0.10991429	          0.05000104	          0.06878554	          0.11210828	          0.05000172	          0.09779829	          0.12413508	          0.05958866	          0.05958861	          0.49957592	          0.21437277	          0.20304274	          0.05958915	          0.16859199	          0.16808869	          0.14265680	          0.05958861	          0.05958868	          0.05958875	          0.05000007	          0.05000032	          0.05000033	          0.55974936	          0.35850680	          0.16888547	          0.22908035	          0.55507459	          0.05528288	          0.05000001	          0.11240984	          0.07101642	
          1.18517054	         -2.91229057	         -2.27470189	          6.19406833	          1.49147541	          0.91704554	         -0.00175337	        -15.45100310	         -1.78319323	          6.02790529	         27.12556625	          4.20541903	         -2.28674055	        -16.02874850	        -12.24408178	         -5.28272363	          3.96093404	         13.12595676	         -4.25814254	          0.48585332	         -1.39388669	         21.51160341	          3.07595194	         -1.10967925	          0.89749286	         -2.15351462	          3.50007945	        -13.50970036	         17.22955970	         -7.54701083	        -13.47816914	          7.62948864	         38.02147570	         14.70933187	         86.51662706	         86.51662706	          0.28211253	          0.05958943	          0.05000005	          0.28978039	          0.12029083	          0.06185987	          0.05000186	          0.05000016	          0.05000016	          0.05000016	          0.06134820	          0.18296045	          0.18903056	          0.05958737	          0.05000278	          0.05000193	          0.24603530	          0.07204770	          0.05000054	          0.05000093	          0.05000063	          0.05000057	          0.21570264	          0.43085073	          0.05000011	          0.05000043	          0.05000024	          0.18017004	          0.10086670	          0.10086672	          0.10086658	          0.16068014	          0.22117091	          0.19825354	          0.15813230	          0.15211850	          0.20429496	          0.17697544	          0.12016597	          0.14981298	          0.31740711	          0.19786669	          0.11628833	          0.07963503	          0.05612467	          0.05000037	          0.37373419	          0.36287292	          0.31793770	          0.13995782	          0.29951503	          0.23869224	          0.08102695	          0.09911857	          0.12555405	          0.07463674	          0.05000070	          0.08463573	          0.19491954	          0.24311540	          0.14648643	          0.15349439	          0.05000027	          0.05771716	          0.09406992	          0.22517596	          0.18137341	          0.15608644	          0.05000006	          0.05000006	          0.41918643	          0.17987694	          0.17037084	          0.05000035	          0.14146353	          0.14107643	          0.11970158	          0.05000010	          0.05000016	          0.05000002	          0.05000002	          0.05000011	          0.05000013	          0.62130687	          0.31994945	          0.16884058	          0.56373701	          0.56290541	          0.27692215	          0.07533764	          0.09432138	          0.05958879	
